HIERARCHY
ROOT Hips
{
	OFFSET	0.00	0.00	0.00
	CHANNELS 6 Xposition Yposition Zposition Zrotation Xrotation Yrotation
	JOINT Chest
	{
		OFFSET	0.000000	6.275751	0.000000
		CHANNELS 3 Zrotation Xrotation Yrotation
		JOINT Neck
		{
			OFFSET	0.000000	14.296947	0.000000
			CHANNELS 3 Zrotation Xrotation Yrotation
			JOINT Head
			{
				OFFSET	0.000000	2.637461	0.000000
				CHANNELS 3 Zrotation Xrotation Yrotation
				End Site
				{
					OFFSET	0.000000	4.499004	0.000000
				}
			}
		}
		JOINT LeftCollar
		{
			OFFSET	1.120000	11.362855	1.870000
			CHANNELS 3 Zrotation Xrotation Yrotation
			JOINT LeftUpArm
			{
				OFFSET	4.565688	2.019026	-1.821179
				CHANNELS 3 Zrotation Xrotation Yrotation
				JOINT LeftLowArm
				{
					OFFSET	0.219729	-10.348825	-0.061708
					CHANNELS 3 Zrotation Xrotation Yrotation
					JOINT LeftHand
					{
						OFFSET	0.087892	-10.352228	2.178217
						CHANNELS 3 Zrotation Xrotation Yrotation
						End Site
						{
							OFFSET	0.131837	-6.692379	1.711456
						}
					}
				}
			}
		}
		JOINT RightCollar
		{
			OFFSET	-1.120000	11.362855	1.870000
			CHANNELS 3 Zrotation Xrotation Yrotation
			JOINT RightUpArm
			{
				OFFSET	-4.708080	2.034554	-1.821179
				CHANNELS 3 Zrotation Xrotation Yrotation
				JOINT RightLowArm
				{
					OFFSET	-0.263676	-10.428555	-0.061708
					CHANNELS 3 Zrotation Xrotation Yrotation
					JOINT RightHand
					{
						OFFSET	0.000000	-10.255345	2.178217
						CHANNELS 3 Zrotation Xrotation Yrotation
						End Site
						{
							OFFSET	-0.140882	-6.671274	1.711456
						}
					}
				}
			}
		}
	}
	JOINT LeftUpLeg
	{
		OFFSET	3.910000	0.000000	0.000000
		CHANNELS 3 Zrotation Xrotation Yrotation
		JOINT LeftLowLeg
		{
			OFFSET	-0.441177	-17.569450	1.695613
			CHANNELS 3 Zrotation Xrotation Yrotation
			JOINT LeftFoot
			{
				OFFSET	-0.043946	-17.197315	-1.478076
				CHANNELS 3 Zrotation Xrotation Yrotation
				End Site
				{
					OFFSET	0.000000	-3.933155	5.233925
				}
			}
		}
	}
	JOINT RightUpLeg
	{
		OFFSET	-3.910000	0.000000	0.000000
		CHANNELS 3 Zrotation Xrotation Yrotation
		JOINT RightLowLeg
		{
			OFFSET	0.437741	-17.622387	1.695613
			CHANNELS 3 Zrotation Xrotation Yrotation
			JOINT RightFoot
			{
				OFFSET	0.000000	-17.140001	-1.478076
				CHANNELS 3 Zrotation Xrotation Yrotation
				End Site
				{
					OFFSET	0.000000	-4.038528	5.233925
				}
			}
		}
	}
}
MOTION
Frames: 7
Frame Time: 0.04166667
-0.690203	6.425720	-10.584737	52.229530	-74.102905	54.238834	179.649963	-17.666151	-167.372177	129.716003	46.167301	78.632637	-139.149429	-18.268711	28.597200	13.089351	32.271912	-108.242935	-66.612633	-14.377330	172.605774	127.224365	7.939627	-35.629566	-77.307808	-16.582474	-16.542961	-34.179745	26.302034	121.727943	71.693901	-24.250698	36.331078	122.765602	-3.186730	-170.904297	-118.339615	-23.554710	168.573349	-62.883366	59.182331	0.000000	178.561584	5.510769	-166.239227	156.483154	28.179045	13.528916	-36.220818	-17.497885	15.374095	-136.325714	4.534697	-96.979958	-65.439178	-27.717817	-32.005501	
-56.969028	5.812836	-3.269674	-2.418675	-3.291070	9.130197	8.598582	0.489390	-1.279004	-3.949569	6.583955	-14.164951	1.184145	-22.122276	0.767513	-17.165873	12.763671	1.560560	26.340715	-23.924181	-56.759163	-7.547088	1.185193	5.807127	-2.278163	2.472245	-0.484034	14.596587	19.305304	-5.215394	-25.883894	-27.081589	19.789875	-5.495636	6.846376	1.591503	-1.135784	2.399606	-0.243627	6.135868	0.412666	10.330128	-3.308928	11.694032	-8.454123	-0.709018	-7.742647	-0.180430	6.153274	12.088406	-31.658669	2.638760	-9.065262	13.573605	-5.574231	-0.309057	5.577782	
-56.895161	5.829605	-3.338549	-2.430518	-3.406209	8.589537	8.482682	1.160001	-1.545578	-3.881917	6.035354	-14.657841	1.707371	-24.251299	1.157785	-17.576847	13.716387	1.988925	26.919884	-25.687212	-53.806664	-7.794924	1.641702	5.896891	-2.112872	2.470808	-0.448952	15.261499	20.109234	-5.676965	-26.526928	-28.424469	19.970762	-5.263338	6.739623	1.540565	-0.707279	2.397998	-0.151682	5.939814	0.663602	10.281813	-3.181917	11.403490	-7.917680	-0.993536	-7.658063	-0.189147	5.907985	12.117535	-30.958645	2.627584	-9.068786	13.451677	-5.437855	-0.138432	5.579961	
-56.761799	5.756928	-3.532531	-2.436850	0.520226	9.835962	8.024644	-5.666037	-3.189745	-4.286058	9.118172	-14.735503	2.430976	-26.892111	1.735766	-10.993622	2.736218	-3.534901	19.452286	-11.230544	-53.257809	-7.661745	1.930424	5.659359	-1.118878	2.464839	-0.237758	7.131345	8.011002	1.912287	-19.041803	-12.052244	20.793777	-5.336976	6.776827	1.548115	-1.094479	2.399403	-0.234759	4.847446	-4.180617	7.700477	-2.861816	12.055714	-6.170651	-1.282694	-7.713729	-0.199894	5.211947	8.018107	-32.094040	2.653309	-9.059442	13.761779	-5.291124	0.031561	5.579827	
-56.691063	5.767159	-3.562552	-2.491654	0.608700	8.963614	7.990012	-5.616298	-3.183714	-4.185563	8.942048	-14.866930	2.874863	-28.947380	2.130045	-10.781749	2.711878	-3.778739	19.350025	-11.197314	-53.690571	-7.294272	2.008251	5.348589	-0.798020	2.463857	-0.169625	7.081074	7.658312	2.214494	-18.883242	-11.620228	21.464174	-5.070753	6.653247	1.503262	-1.141156	2.399568	-0.244758	4.758416	-4.021100	8.159851	-2.776732	11.803858	-5.818290	-1.356672	-7.778755	-0.203854	4.994197	7.874098	-31.082460	2.642918	-9.062897	13.648026	-5.246545	0.199318	5.590279	
-56.622025	5.779942	-3.580406	-2.579117	0.725123	8.160533	8.073071	-5.613463	-3.312856	-4.162237	8.719963	-14.940033	3.363125	-30.862139	2.573349	-10.790242	2.846914	-3.910510	19.460857	-11.323071	-55.633034	-6.862185	1.716023	4.972750	-19.307119	3.147503	-4.029401	7.107402	7.677929	2.390178	-18.849047	-11.603161	22.200573	-4.782082	6.563986	1.469094	-0.854137	2.398541	-0.183197	4.708784	-3.835098	8.611930	-2.706741	11.466073	-5.547902	-1.390759	-7.898146	-0.207745	4.821776	7.720834	-30.158329	2.634884	-9.065392	13.552762	-5.158487	0.285951	5.588261	
-56.548019	5.809134	-3.582594	-2.562936	0.582047	7.438010	6.473805	-4.509320	-0.840205	-1.452265	7.561943	-17.126057	2.621508	-32.599117	2.060579	-9.635239	6.453347	-4.310147	20.600653	-15.753415	-58.597805	-6.899482	1.324192	5.071959	-20.128763	3.206371	-4.194255	9.771195	7.686560	-0.621456	-19.127029	-12.791422	22.694933	-4.849098	6.599723	1.479699	-0.593224	2.397592	-0.127215	4.553412	-3.172231	9.054274	-2.625472	10.736581	-5.302134	-1.567554	-7.815145	-0.212321	4.592077	7.860894	-29.395744	2.632822	-9.066682	13.528756	-5.032317	0.381646	5.582226	
